<mxfile host="app.diagrams.net" modified="2023-09-18T11:21:05.696Z" agent="Mozilla/5.0 (Windows NT 10.0; Win64; x64) AppleWebKit/537.36 (KHTML, like Gecko) Chrome/116.0.0.0 Safari/537.36" etag="5BpdCT_7VeGwAACt-BAs" version="21.3.7" type="device">
  <diagram id="R2lEEEUBdFMjLlhIrx00" name="Page-1">
    <mxGraphModel dx="1615" dy="1488" grid="1" gridSize="10" guides="1" tooltips="1" connect="1" arrows="1" fold="1" page="1" pageScale="1" pageWidth="850" pageHeight="1100" math="0" shadow="0" extFonts="Permanent Marker^https://fonts.googleapis.com/css?family=Permanent+Marker">
      <root>
        <mxCell id="0" />
        <mxCell id="1" parent="0" />
        <mxCell id="N1igYpdXhc1rZIDnyuqD-1" value="&lt;font style=&quot;font-size: 14px;&quot;&gt;stores&lt;/font&gt;" style="rounded=0;whiteSpace=wrap;html=1;fillColor=#dae8fc;gradientColor=#7ea6e0;strokeColor=#6c8ebf;" vertex="1" parent="1">
          <mxGeometry x="-230" y="840" width="120" height="60" as="geometry" />
        </mxCell>
        <mxCell id="N1igYpdXhc1rZIDnyuqD-2" value="&lt;font style=&quot;font-size: 14px;&quot;&gt;users&lt;br&gt;&lt;/font&gt;" style="rounded=0;whiteSpace=wrap;html=1;fillColor=#dae8fc;gradientColor=#7ea6e0;strokeColor=#6c8ebf;" vertex="1" parent="1">
          <mxGeometry x="80" y="110" width="120" height="60" as="geometry" />
        </mxCell>
        <mxCell id="N1igYpdXhc1rZIDnyuqD-3" value="&lt;font style=&quot;font-size: 14px;&quot;&gt;admins&lt;br&gt;&lt;/font&gt;" style="rounded=0;whiteSpace=wrap;html=1;fillColor=#dae8fc;gradientColor=#7ea6e0;strokeColor=#6c8ebf;" vertex="1" parent="1">
          <mxGeometry x="580" y="110" width="120" height="60" as="geometry" />
        </mxCell>
        <mxCell id="N1igYpdXhc1rZIDnyuqD-4" value="&lt;font style=&quot;font-size: 14px;&quot;&gt;products&lt;br&gt;&lt;/font&gt;" style="rounded=0;whiteSpace=wrap;html=1;fillColor=#dae8fc;gradientColor=#7ea6e0;strokeColor=#6c8ebf;" vertex="1" parent="1">
          <mxGeometry x="1050" y="162.78" width="120" height="60" as="geometry" />
        </mxCell>
        <mxCell id="N1igYpdXhc1rZIDnyuqD-6" value="&lt;font style=&quot;font-size: 14px;&quot;&gt;sales&lt;br&gt;&lt;/font&gt;" style="rounded=0;whiteSpace=wrap;html=1;fillColor=#dae8fc;gradientColor=#7ea6e0;strokeColor=#6c8ebf;" vertex="1" parent="1">
          <mxGeometry x="340" y="837" width="120" height="60" as="geometry" />
        </mxCell>
        <mxCell id="N1igYpdXhc1rZIDnyuqD-7" value="&lt;font style=&quot;font-size: 14px;&quot;&gt;likes&lt;br&gt;&lt;/font&gt;" style="rounded=0;whiteSpace=wrap;html=1;fillColor=#dae8fc;gradientColor=#7ea6e0;strokeColor=#6c8ebf;" vertex="1" parent="1">
          <mxGeometry x="160" y="390" width="120" height="60" as="geometry" />
        </mxCell>
        <mxCell id="N1igYpdXhc1rZIDnyuqD-8" value="&lt;font style=&quot;font-size: 14px;&quot;&gt;dislikes&lt;br&gt;&lt;/font&gt;" style="rounded=0;whiteSpace=wrap;html=1;fillColor=#dae8fc;gradientColor=#7ea6e0;strokeColor=#6c8ebf;" vertex="1" parent="1">
          <mxGeometry x="-180" y="390" width="120" height="60" as="geometry" />
        </mxCell>
        <mxCell id="N1igYpdXhc1rZIDnyuqD-9" value="&lt;font style=&quot;font-size: 14px;&quot;&gt;categories&lt;br&gt;&lt;/font&gt;" style="rounded=0;whiteSpace=wrap;html=1;fillColor=#dae8fc;gradientColor=#7ea6e0;strokeColor=#6c8ebf;" vertex="1" parent="1">
          <mxGeometry x="580" y="610" width="120" height="60" as="geometry" />
        </mxCell>
        <mxCell id="N1igYpdXhc1rZIDnyuqD-10" value="&lt;font style=&quot;font-size: 14px;&quot;&gt;seubcategories&lt;br&gt;&lt;/font&gt;" style="rounded=0;whiteSpace=wrap;html=1;fillColor=#dae8fc;gradientColor=#7ea6e0;strokeColor=#6c8ebf;" vertex="1" parent="1">
          <mxGeometry x="790" y="390" width="120" height="60" as="geometry" />
        </mxCell>
        <mxCell id="N1igYpdXhc1rZIDnyuqD-11" value="&lt;u&gt;id&lt;/u&gt;" style="ellipse;whiteSpace=wrap;html=1;fillColor=#fff2cc;gradientColor=#ffd966;strokeColor=#d6b656;" vertex="1" parent="1">
          <mxGeometry x="-90" y="10" width="80" height="50" as="geometry" />
        </mxCell>
        <mxCell id="N1igYpdXhc1rZIDnyuqD-12" value="&lt;u&gt;username&lt;/u&gt;" style="ellipse;whiteSpace=wrap;html=1;fillColor=#fff2cc;gradientColor=#ffd966;strokeColor=#d6b656;" vertex="1" parent="1">
          <mxGeometry x="10" y="-40" width="80" height="50" as="geometry" />
        </mxCell>
        <mxCell id="N1igYpdXhc1rZIDnyuqD-13" value="passwd" style="ellipse;whiteSpace=wrap;html=1;fillColor=#fff2cc;gradientColor=#ffd966;strokeColor=#d6b656;" vertex="1" parent="1">
          <mxGeometry x="260" y="180" width="80" height="50" as="geometry" />
        </mxCell>
        <mxCell id="N1igYpdXhc1rZIDnyuqD-14" value="&lt;u&gt;email&lt;/u&gt;" style="ellipse;whiteSpace=wrap;html=1;fillColor=#fff2cc;gradientColor=#ffd966;strokeColor=#d6b656;" vertex="1" parent="1">
          <mxGeometry x="110" y="10" width="80" height="50" as="geometry" />
        </mxCell>
        <mxCell id="N1igYpdXhc1rZIDnyuqD-15" value="sum_score" style="ellipse;whiteSpace=wrap;html=1;fillColor=#fff2cc;gradientColor=#ffd966;strokeColor=#d6b656;" vertex="1" parent="1">
          <mxGeometry x="-70" y="200" width="80" height="50" as="geometry" />
        </mxCell>
        <mxCell id="N1igYpdXhc1rZIDnyuqD-16" value="sum_tokens" style="ellipse;whiteSpace=wrap;html=1;fillColor=#fff2cc;gradientColor=#ffd966;strokeColor=#d6b656;" vertex="1" parent="1">
          <mxGeometry x="-80" y="100" width="80" height="50" as="geometry" />
        </mxCell>
        <mxCell id="N1igYpdXhc1rZIDnyuqD-17" value="monthly_score" style="ellipse;whiteSpace=wrap;html=1;fillColor=#fff2cc;gradientColor=#ffd966;strokeColor=#d6b656;" vertex="1" parent="1">
          <mxGeometry x="200" y="-30" width="80" height="50" as="geometry" />
        </mxCell>
        <mxCell id="N1igYpdXhc1rZIDnyuqD-18" value="monthly_tokens" style="ellipse;whiteSpace=wrap;html=1;fillColor=#fff2cc;gradientColor=#ffd966;strokeColor=#d6b656;" vertex="1" parent="1">
          <mxGeometry x="260" y="30" width="80" height="50" as="geometry" />
        </mxCell>
        <mxCell id="N1igYpdXhc1rZIDnyuqD-19" value="" style="endArrow=none;html=1;rounded=0;exitX=0.5;exitY=0;exitDx=0;exitDy=0;entryX=1;entryY=1;entryDx=0;entryDy=0;" edge="1" parent="1" source="N1igYpdXhc1rZIDnyuqD-2" target="N1igYpdXhc1rZIDnyuqD-11">
          <mxGeometry width="50" height="50" relative="1" as="geometry">
            <mxPoint x="200" y="230" as="sourcePoint" />
            <mxPoint x="250" y="180" as="targetPoint" />
          </mxGeometry>
        </mxCell>
        <mxCell id="N1igYpdXhc1rZIDnyuqD-22" value="" style="endArrow=none;html=1;rounded=0;entryX=0.5;entryY=1;entryDx=0;entryDy=0;" edge="1" parent="1" target="N1igYpdXhc1rZIDnyuqD-12">
          <mxGeometry width="50" height="50" relative="1" as="geometry">
            <mxPoint x="140" y="110" as="sourcePoint" />
            <mxPoint x="250" y="180" as="targetPoint" />
          </mxGeometry>
        </mxCell>
        <mxCell id="N1igYpdXhc1rZIDnyuqD-23" value="" style="endArrow=none;html=1;rounded=0;entryX=0.5;entryY=1;entryDx=0;entryDy=0;exitX=0.5;exitY=0;exitDx=0;exitDy=0;" edge="1" parent="1" source="N1igYpdXhc1rZIDnyuqD-2" target="N1igYpdXhc1rZIDnyuqD-14">
          <mxGeometry width="50" height="50" relative="1" as="geometry">
            <mxPoint x="200" y="230" as="sourcePoint" />
            <mxPoint x="250" y="180" as="targetPoint" />
          </mxGeometry>
        </mxCell>
        <mxCell id="N1igYpdXhc1rZIDnyuqD-24" value="" style="endArrow=none;html=1;rounded=0;exitX=1;exitY=0.5;exitDx=0;exitDy=0;entryX=0;entryY=0.25;entryDx=0;entryDy=0;" edge="1" parent="1" source="N1igYpdXhc1rZIDnyuqD-16" target="N1igYpdXhc1rZIDnyuqD-2">
          <mxGeometry width="50" height="50" relative="1" as="geometry">
            <mxPoint x="200" y="230" as="sourcePoint" />
            <mxPoint x="250" y="180" as="targetPoint" />
          </mxGeometry>
        </mxCell>
        <mxCell id="N1igYpdXhc1rZIDnyuqD-25" value="" style="endArrow=none;html=1;rounded=0;exitX=1;exitY=0;exitDx=0;exitDy=0;entryX=0;entryY=0.75;entryDx=0;entryDy=0;" edge="1" parent="1" source="N1igYpdXhc1rZIDnyuqD-15" target="N1igYpdXhc1rZIDnyuqD-2">
          <mxGeometry width="50" height="50" relative="1" as="geometry">
            <mxPoint x="200" y="230" as="sourcePoint" />
            <mxPoint x="250" y="180" as="targetPoint" />
          </mxGeometry>
        </mxCell>
        <mxCell id="N1igYpdXhc1rZIDnyuqD-26" value="" style="endArrow=none;html=1;rounded=0;entryX=1;entryY=1;entryDx=0;entryDy=0;exitX=0;exitY=0;exitDx=0;exitDy=0;" edge="1" parent="1" source="N1igYpdXhc1rZIDnyuqD-13" target="N1igYpdXhc1rZIDnyuqD-2">
          <mxGeometry width="50" height="50" relative="1" as="geometry">
            <mxPoint x="200" y="230" as="sourcePoint" />
            <mxPoint x="250" y="180" as="targetPoint" />
          </mxGeometry>
        </mxCell>
        <mxCell id="N1igYpdXhc1rZIDnyuqD-27" value="ΕΙΝΑΙ" style="rhombus;whiteSpace=wrap;html=1;fillColor=#f5f5f5;gradientColor=#b3b3b3;strokeColor=#666666;fontSize=14;" vertex="1" parent="1">
          <mxGeometry x="340" y="100" width="120" height="80" as="geometry" />
        </mxCell>
        <mxCell id="N1igYpdXhc1rZIDnyuqD-28" value="" style="endArrow=none;html=1;rounded=0;exitX=1;exitY=0.5;exitDx=0;exitDy=0;entryX=0;entryY=0.5;entryDx=0;entryDy=0;" edge="1" parent="1" source="N1igYpdXhc1rZIDnyuqD-2" target="N1igYpdXhc1rZIDnyuqD-27">
          <mxGeometry width="50" height="50" relative="1" as="geometry">
            <mxPoint x="350" y="230" as="sourcePoint" />
            <mxPoint x="400" y="180" as="targetPoint" />
          </mxGeometry>
        </mxCell>
        <mxCell id="N1igYpdXhc1rZIDnyuqD-29" value="" style="endArrow=none;html=1;rounded=0;entryX=1;entryY=0.5;entryDx=0;entryDy=0;exitX=0;exitY=0.5;exitDx=0;exitDy=0;" edge="1" parent="1" source="N1igYpdXhc1rZIDnyuqD-3" target="N1igYpdXhc1rZIDnyuqD-27">
          <mxGeometry width="50" height="50" relative="1" as="geometry">
            <mxPoint x="350" y="230" as="sourcePoint" />
            <mxPoint x="400" y="180" as="targetPoint" />
          </mxGeometry>
        </mxCell>
        <mxCell id="N1igYpdXhc1rZIDnyuqD-31" value="1" style="text;html=1;strokeColor=none;fillColor=none;align=center;verticalAlign=middle;whiteSpace=wrap;rounded=0;" vertex="1" parent="1">
          <mxGeometry x="270" y="110" width="60" height="30" as="geometry" />
        </mxCell>
        <mxCell id="N1igYpdXhc1rZIDnyuqD-32" value="0...1" style="text;html=1;strokeColor=none;fillColor=none;align=center;verticalAlign=middle;whiteSpace=wrap;rounded=0;" vertex="1" parent="1">
          <mxGeometry x="490" y="110" width="60" height="30" as="geometry" />
        </mxCell>
        <mxCell id="N1igYpdXhc1rZIDnyuqD-33" value="" style="endArrow=none;html=1;rounded=0;entryX=0.5;entryY=0;entryDx=0;entryDy=0;exitX=0.5;exitY=1;exitDx=0;exitDy=0;" edge="1" parent="1" source="N1igYpdXhc1rZIDnyuqD-17" target="N1igYpdXhc1rZIDnyuqD-2">
          <mxGeometry width="50" height="50" relative="1" as="geometry">
            <mxPoint x="140" y="230" as="sourcePoint" />
            <mxPoint x="190" y="180" as="targetPoint" />
          </mxGeometry>
        </mxCell>
        <mxCell id="N1igYpdXhc1rZIDnyuqD-34" value="" style="endArrow=none;html=1;rounded=0;entryX=0.5;entryY=0;entryDx=0;entryDy=0;exitX=0;exitY=1;exitDx=0;exitDy=0;" edge="1" parent="1" source="N1igYpdXhc1rZIDnyuqD-18" target="N1igYpdXhc1rZIDnyuqD-2">
          <mxGeometry width="50" height="50" relative="1" as="geometry">
            <mxPoint x="140" y="160" as="sourcePoint" />
            <mxPoint x="190" y="110" as="targetPoint" />
          </mxGeometry>
        </mxCell>
        <mxCell id="N1igYpdXhc1rZIDnyuqD-35" value="ΚΑΝΕΙ" style="rhombus;whiteSpace=wrap;html=1;fillColor=#f5f5f5;gradientColor=#b3b3b3;strokeColor=#666666;fontSize=14;" vertex="1" parent="1">
          <mxGeometry x="-20" y="260" width="120" height="80" as="geometry" />
        </mxCell>
        <mxCell id="N1igYpdXhc1rZIDnyuqD-37" value="" style="endArrow=none;html=1;rounded=0;entryX=0.5;entryY=1;entryDx=0;entryDy=0;exitX=0.5;exitY=0;exitDx=0;exitDy=0;" edge="1" parent="1" source="N1igYpdXhc1rZIDnyuqD-35" target="N1igYpdXhc1rZIDnyuqD-2">
          <mxGeometry width="50" height="50" relative="1" as="geometry">
            <mxPoint x="170" y="360" as="sourcePoint" />
            <mxPoint x="220" y="310" as="targetPoint" />
          </mxGeometry>
        </mxCell>
        <mxCell id="N1igYpdXhc1rZIDnyuqD-39" value="" style="endArrow=none;html=1;rounded=0;entryX=0.5;entryY=1;entryDx=0;entryDy=0;exitX=0.5;exitY=0;exitDx=0;exitDy=0;" edge="1" parent="1" source="N1igYpdXhc1rZIDnyuqD-8" target="N1igYpdXhc1rZIDnyuqD-35">
          <mxGeometry width="50" height="50" relative="1" as="geometry">
            <mxPoint x="70" y="360" as="sourcePoint" />
            <mxPoint x="120" y="310" as="targetPoint" />
          </mxGeometry>
        </mxCell>
        <mxCell id="N1igYpdXhc1rZIDnyuqD-40" value="" style="endArrow=none;html=1;rounded=0;exitX=0.5;exitY=1;exitDx=0;exitDy=0;entryX=0.5;entryY=0;entryDx=0;entryDy=0;" edge="1" parent="1" source="N1igYpdXhc1rZIDnyuqD-35" target="N1igYpdXhc1rZIDnyuqD-7">
          <mxGeometry width="50" height="50" relative="1" as="geometry">
            <mxPoint x="70" y="360" as="sourcePoint" />
            <mxPoint x="120" y="310" as="targetPoint" />
          </mxGeometry>
        </mxCell>
        <mxCell id="N1igYpdXhc1rZIDnyuqD-41" value="1" style="text;html=1;strokeColor=none;fillColor=none;align=center;verticalAlign=middle;whiteSpace=wrap;rounded=0;" vertex="1" parent="1">
          <mxGeometry x="73" y="202" width="60" height="30" as="geometry" />
        </mxCell>
        <mxCell id="N1igYpdXhc1rZIDnyuqD-42" value="*" style="text;html=1;strokeColor=none;fillColor=none;align=center;verticalAlign=middle;whiteSpace=wrap;rounded=0;fontStyle=0;fontSize=18;" vertex="1" parent="1">
          <mxGeometry x="-70" y="340" width="60" height="30" as="geometry" />
        </mxCell>
        <mxCell id="N1igYpdXhc1rZIDnyuqD-43" value="*" style="text;html=1;strokeColor=none;fillColor=none;align=center;verticalAlign=middle;whiteSpace=wrap;rounded=0;fontStyle=0;fontSize=18;" vertex="1" parent="1">
          <mxGeometry x="100" y="340" width="60" height="30" as="geometry" />
        </mxCell>
        <mxCell id="N1igYpdXhc1rZIDnyuqD-44" value="&lt;u&gt;id&lt;/u&gt;" style="ellipse;whiteSpace=wrap;html=1;fillColor=#fff2cc;gradientColor=#ffd966;strokeColor=#d6b656;" vertex="1" parent="1">
          <mxGeometry x="-280" y="480" width="80" height="50" as="geometry" />
        </mxCell>
        <mxCell id="N1igYpdXhc1rZIDnyuqD-45" value="&lt;u&gt;sales_id&lt;/u&gt;" style="ellipse;whiteSpace=wrap;html=1;fillColor=#fff2cc;gradientColor=#ffd966;strokeColor=#d6b656;" vertex="1" parent="1">
          <mxGeometry x="-160" y="520" width="80" height="50" as="geometry" />
        </mxCell>
        <mxCell id="N1igYpdXhc1rZIDnyuqD-46" value="&lt;u&gt;user_disliked&lt;/u&gt;" style="ellipse;whiteSpace=wrap;html=1;fillColor=#fff2cc;gradientColor=#ffd966;strokeColor=#d6b656;" vertex="1" parent="1">
          <mxGeometry x="-50" y="490" width="80" height="50" as="geometry" />
        </mxCell>
        <mxCell id="N1igYpdXhc1rZIDnyuqD-47" value="&lt;u&gt;id&lt;/u&gt;" style="ellipse;whiteSpace=wrap;html=1;fillColor=#fff2cc;gradientColor=#ffd966;strokeColor=#d6b656;" vertex="1" parent="1">
          <mxGeometry x="80" y="490" width="80" height="50" as="geometry" />
        </mxCell>
        <mxCell id="N1igYpdXhc1rZIDnyuqD-48" value="&lt;u&gt;sales_id&lt;/u&gt;" style="ellipse;whiteSpace=wrap;html=1;fillColor=#fff2cc;gradientColor=#ffd966;strokeColor=#d6b656;" vertex="1" parent="1">
          <mxGeometry x="180" y="520" width="80" height="50" as="geometry" />
        </mxCell>
        <mxCell id="N1igYpdXhc1rZIDnyuqD-49" value="&lt;u&gt;user_liked&lt;/u&gt;" style="ellipse;whiteSpace=wrap;html=1;fillColor=#fff2cc;gradientColor=#ffd966;strokeColor=#d6b656;" vertex="1" parent="1">
          <mxGeometry x="300" y="490" width="80" height="50" as="geometry" />
        </mxCell>
        <mxCell id="N1igYpdXhc1rZIDnyuqD-50" value="" style="endArrow=none;html=1;rounded=0;entryX=0.5;entryY=1;entryDx=0;entryDy=0;exitX=0.5;exitY=0;exitDx=0;exitDy=0;" edge="1" parent="1" source="N1igYpdXhc1rZIDnyuqD-44" target="N1igYpdXhc1rZIDnyuqD-8">
          <mxGeometry width="50" height="50" relative="1" as="geometry">
            <mxPoint x="-240" y="460" as="sourcePoint" />
            <mxPoint x="150" y="460" as="targetPoint" />
          </mxGeometry>
        </mxCell>
        <mxCell id="N1igYpdXhc1rZIDnyuqD-52" value="" style="endArrow=none;html=1;rounded=0;exitX=0.5;exitY=1;exitDx=0;exitDy=0;entryX=0.5;entryY=0;entryDx=0;entryDy=0;" edge="1" parent="1" source="N1igYpdXhc1rZIDnyuqD-8" target="N1igYpdXhc1rZIDnyuqD-45">
          <mxGeometry width="50" height="50" relative="1" as="geometry">
            <mxPoint x="100" y="510" as="sourcePoint" />
            <mxPoint x="150" y="460" as="targetPoint" />
          </mxGeometry>
        </mxCell>
        <mxCell id="N1igYpdXhc1rZIDnyuqD-54" value="" style="endArrow=none;html=1;rounded=0;entryX=0.5;entryY=1;entryDx=0;entryDy=0;exitX=0.5;exitY=0;exitDx=0;exitDy=0;" edge="1" parent="1" source="N1igYpdXhc1rZIDnyuqD-46" target="N1igYpdXhc1rZIDnyuqD-8">
          <mxGeometry width="50" height="50" relative="1" as="geometry">
            <mxPoint x="-10" y="470" as="sourcePoint" />
            <mxPoint x="150" y="460" as="targetPoint" />
          </mxGeometry>
        </mxCell>
        <mxCell id="N1igYpdXhc1rZIDnyuqD-55" value="" style="endArrow=none;html=1;rounded=0;entryX=0.5;entryY=1;entryDx=0;entryDy=0;exitX=0.5;exitY=0;exitDx=0;exitDy=0;" edge="1" parent="1" source="N1igYpdXhc1rZIDnyuqD-47" target="N1igYpdXhc1rZIDnyuqD-7">
          <mxGeometry width="50" height="50" relative="1" as="geometry">
            <mxPoint x="100" y="510" as="sourcePoint" />
            <mxPoint x="150" y="460" as="targetPoint" />
          </mxGeometry>
        </mxCell>
        <mxCell id="N1igYpdXhc1rZIDnyuqD-56" value="" style="endArrow=none;html=1;rounded=0;exitX=0.5;exitY=0;exitDx=0;exitDy=0;" edge="1" parent="1" source="N1igYpdXhc1rZIDnyuqD-48">
          <mxGeometry width="50" height="50" relative="1" as="geometry">
            <mxPoint x="100" y="510" as="sourcePoint" />
            <mxPoint x="220" y="450" as="targetPoint" />
          </mxGeometry>
        </mxCell>
        <mxCell id="N1igYpdXhc1rZIDnyuqD-57" value="" style="endArrow=none;html=1;rounded=0;entryX=0.5;entryY=1;entryDx=0;entryDy=0;exitX=0.5;exitY=0;exitDx=0;exitDy=0;" edge="1" parent="1" source="N1igYpdXhc1rZIDnyuqD-49" target="N1igYpdXhc1rZIDnyuqD-7">
          <mxGeometry width="50" height="50" relative="1" as="geometry">
            <mxPoint x="100" y="510" as="sourcePoint" />
            <mxPoint x="150" y="460" as="targetPoint" />
          </mxGeometry>
        </mxCell>
        <mxCell id="N1igYpdXhc1rZIDnyuqD-58" value="&lt;u&gt;id&lt;/u&gt;" style="ellipse;whiteSpace=wrap;html=1;fillColor=#fff2cc;gradientColor=#ffd966;strokeColor=#d6b656;" vertex="1" parent="1">
          <mxGeometry x="520" y="20" width="80" height="50" as="geometry" />
        </mxCell>
        <mxCell id="N1igYpdXhc1rZIDnyuqD-59" value="&lt;u&gt;user_id&lt;/u&gt;" style="ellipse;whiteSpace=wrap;html=1;fillColor=#fff2cc;gradientColor=#ffd966;strokeColor=#d6b656;" vertex="1" parent="1">
          <mxGeometry x="680" y="20" width="80" height="50" as="geometry" />
        </mxCell>
        <mxCell id="N1igYpdXhc1rZIDnyuqD-60" value="" style="endArrow=none;html=1;rounded=0;exitX=0.5;exitY=0;exitDx=0;exitDy=0;entryX=0.5;entryY=1;entryDx=0;entryDy=0;" edge="1" parent="1" source="N1igYpdXhc1rZIDnyuqD-3" target="N1igYpdXhc1rZIDnyuqD-58">
          <mxGeometry width="50" height="50" relative="1" as="geometry">
            <mxPoint x="300" y="250" as="sourcePoint" />
            <mxPoint x="350" y="200" as="targetPoint" />
          </mxGeometry>
        </mxCell>
        <mxCell id="N1igYpdXhc1rZIDnyuqD-61" value="" style="endArrow=none;html=1;rounded=0;entryX=0.5;entryY=0;entryDx=0;entryDy=0;exitX=0.5;exitY=1;exitDx=0;exitDy=0;" edge="1" parent="1" source="N1igYpdXhc1rZIDnyuqD-59" target="N1igYpdXhc1rZIDnyuqD-3">
          <mxGeometry width="50" height="50" relative="1" as="geometry">
            <mxPoint x="300" y="250" as="sourcePoint" />
            <mxPoint x="350" y="200" as="targetPoint" />
          </mxGeometry>
        </mxCell>
        <mxCell id="N1igYpdXhc1rZIDnyuqD-62" value="&lt;u&gt;id&lt;/u&gt;" style="ellipse;whiteSpace=wrap;html=1;fillColor=#fff2cc;gradientColor=#ffd966;strokeColor=#d6b656;" vertex="1" parent="1">
          <mxGeometry x="930" y="72.78" width="80" height="50" as="geometry" />
        </mxCell>
        <mxCell id="N1igYpdXhc1rZIDnyuqD-63" value="&lt;span&gt;name&lt;br&gt;&lt;/span&gt;" style="ellipse;whiteSpace=wrap;html=1;fillColor=#fff2cc;gradientColor=#ffd966;strokeColor=#d6b656;fontStyle=0" vertex="1" parent="1">
          <mxGeometry x="1070" y="32.78" width="80" height="50" as="geometry" />
        </mxCell>
        <mxCell id="N1igYpdXhc1rZIDnyuqD-64" value="&lt;span&gt;&lt;u&gt;subcategories_id&lt;/u&gt;&lt;/span&gt;" style="ellipse;whiteSpace=wrap;html=1;fillColor=#fff2cc;gradientColor=#ffd966;strokeColor=#d6b656;fontStyle=0" vertex="1" parent="1">
          <mxGeometry x="1200" y="62.78" width="100" height="50" as="geometry" />
        </mxCell>
        <mxCell id="N1igYpdXhc1rZIDnyuqD-65" value="avgprice_yesterday" style="ellipse;whiteSpace=wrap;html=1;fillColor=#fff2cc;gradientColor=#ffd966;strokeColor=#d6b656;fontStyle=0" vertex="1" parent="1">
          <mxGeometry x="1240" y="167.78" width="120" height="50" as="geometry" />
        </mxCell>
        <mxCell id="N1igYpdXhc1rZIDnyuqD-66" value="&lt;u&gt;avgprice_lastmonth&lt;br&gt;&lt;/u&gt;" style="ellipse;whiteSpace=wrap;html=1;fillColor=#fff2cc;gradientColor=#ffd966;strokeColor=#d6b656;" vertex="1" parent="1">
          <mxGeometry x="1240" y="267.78" width="120" height="50" as="geometry" />
        </mxCell>
        <mxCell id="N1igYpdXhc1rZIDnyuqD-67" value="" style="endArrow=none;html=1;rounded=0;entryX=0.5;entryY=1;entryDx=0;entryDy=0;exitX=0.5;exitY=0;exitDx=0;exitDy=0;" edge="1" parent="1" source="N1igYpdXhc1rZIDnyuqD-4" target="N1igYpdXhc1rZIDnyuqD-62">
          <mxGeometry width="50" height="50" relative="1" as="geometry">
            <mxPoint x="840" y="202.78" as="sourcePoint" />
            <mxPoint x="890" y="152.78" as="targetPoint" />
          </mxGeometry>
        </mxCell>
        <mxCell id="N1igYpdXhc1rZIDnyuqD-68" value="" style="endArrow=none;html=1;rounded=0;entryX=0.5;entryY=1;entryDx=0;entryDy=0;exitX=0.5;exitY=0;exitDx=0;exitDy=0;" edge="1" parent="1" source="N1igYpdXhc1rZIDnyuqD-4" target="N1igYpdXhc1rZIDnyuqD-63">
          <mxGeometry width="50" height="50" relative="1" as="geometry">
            <mxPoint x="840" y="202.78" as="sourcePoint" />
            <mxPoint x="890" y="152.78" as="targetPoint" />
          </mxGeometry>
        </mxCell>
        <mxCell id="N1igYpdXhc1rZIDnyuqD-69" value="" style="endArrow=none;html=1;rounded=0;entryX=0.5;entryY=0;entryDx=0;entryDy=0;exitX=0.5;exitY=1;exitDx=0;exitDy=0;" edge="1" parent="1" source="N1igYpdXhc1rZIDnyuqD-64" target="N1igYpdXhc1rZIDnyuqD-4">
          <mxGeometry width="50" height="50" relative="1" as="geometry">
            <mxPoint x="840" y="202.78" as="sourcePoint" />
            <mxPoint x="890" y="152.78" as="targetPoint" />
          </mxGeometry>
        </mxCell>
        <mxCell id="N1igYpdXhc1rZIDnyuqD-70" value="" style="endArrow=none;html=1;rounded=0;entryX=0;entryY=0.5;entryDx=0;entryDy=0;exitX=1;exitY=0.5;exitDx=0;exitDy=0;" edge="1" parent="1" source="N1igYpdXhc1rZIDnyuqD-4" target="N1igYpdXhc1rZIDnyuqD-65">
          <mxGeometry width="50" height="50" relative="1" as="geometry">
            <mxPoint x="840" y="202.78" as="sourcePoint" />
            <mxPoint x="890" y="152.78" as="targetPoint" />
          </mxGeometry>
        </mxCell>
        <mxCell id="N1igYpdXhc1rZIDnyuqD-72" value="" style="endArrow=none;html=1;rounded=0;entryX=1;entryY=1;entryDx=0;entryDy=0;exitX=0.5;exitY=0;exitDx=0;exitDy=0;" edge="1" parent="1" source="N1igYpdXhc1rZIDnyuqD-66" target="N1igYpdXhc1rZIDnyuqD-4">
          <mxGeometry width="50" height="50" relative="1" as="geometry">
            <mxPoint x="1010" y="232.78" as="sourcePoint" />
            <mxPoint x="1060" y="182.78" as="targetPoint" />
          </mxGeometry>
        </mxCell>
        <mxCell id="N1igYpdXhc1rZIDnyuqD-73" value="ΑΝΗΚΕΙ ΣΕ" style="rhombus;whiteSpace=wrap;html=1;fillColor=#f5f5f5;gradientColor=#b3b3b3;strokeColor=#666666;fontSize=14;" vertex="1" parent="1">
          <mxGeometry x="790" y="240" width="120" height="80" as="geometry" />
        </mxCell>
        <mxCell id="N1igYpdXhc1rZIDnyuqD-74" value="" style="endArrow=none;html=1;rounded=0;entryX=0;entryY=1;entryDx=0;entryDy=0;exitX=1;exitY=0.5;exitDx=0;exitDy=0;" edge="1" parent="1" source="N1igYpdXhc1rZIDnyuqD-73" target="N1igYpdXhc1rZIDnyuqD-4">
          <mxGeometry width="50" height="50" relative="1" as="geometry">
            <mxPoint x="950" y="272.78" as="sourcePoint" />
            <mxPoint x="690" y="482.78" as="targetPoint" />
          </mxGeometry>
        </mxCell>
        <mxCell id="N1igYpdXhc1rZIDnyuqD-75" value="" style="endArrow=none;html=1;rounded=0;entryX=0.5;entryY=1;entryDx=0;entryDy=0;exitX=0.5;exitY=0;exitDx=0;exitDy=0;" edge="1" parent="1" source="N1igYpdXhc1rZIDnyuqD-10" target="N1igYpdXhc1rZIDnyuqD-73">
          <mxGeometry width="50" height="50" relative="1" as="geometry">
            <mxPoint x="600" y="420" as="sourcePoint" />
            <mxPoint x="650" y="380" as="targetPoint" />
          </mxGeometry>
        </mxCell>
        <mxCell id="N1igYpdXhc1rZIDnyuqD-76" value="ΑΝΗΚΕΙ ΣΕ" style="rhombus;whiteSpace=wrap;html=1;fillColor=#f5f5f5;gradientColor=#b3b3b3;strokeColor=#666666;fontSize=14;" vertex="1" parent="1">
          <mxGeometry x="580" y="380" width="120" height="80" as="geometry" />
        </mxCell>
        <mxCell id="N1igYpdXhc1rZIDnyuqD-77" value="" style="endArrow=none;html=1;rounded=0;entryX=0.5;entryY=1;entryDx=0;entryDy=0;exitX=0.5;exitY=0;exitDx=0;exitDy=0;" edge="1" parent="1" source="N1igYpdXhc1rZIDnyuqD-9" target="N1igYpdXhc1rZIDnyuqD-76">
          <mxGeometry width="50" height="50" relative="1" as="geometry">
            <mxPoint x="600" y="660" as="sourcePoint" />
            <mxPoint x="650" y="610" as="targetPoint" />
          </mxGeometry>
        </mxCell>
        <mxCell id="N1igYpdXhc1rZIDnyuqD-78" value="&lt;u&gt;id&lt;/u&gt;" style="ellipse;whiteSpace=wrap;html=1;fillColor=#fff2cc;gradientColor=#ffd966;strokeColor=#d6b656;" vertex="1" parent="1">
          <mxGeometry x="980" y="395" width="80" height="50" as="geometry" />
        </mxCell>
        <mxCell id="N1igYpdXhc1rZIDnyuqD-79" value="&lt;span&gt;name&lt;/span&gt;" style="ellipse;whiteSpace=wrap;html=1;fillColor=#fff2cc;gradientColor=#ffd966;strokeColor=#d6b656;fontStyle=0" vertex="1" parent="1">
          <mxGeometry x="980" y="500" width="80" height="50" as="geometry" />
        </mxCell>
        <mxCell id="N1igYpdXhc1rZIDnyuqD-80" value="&lt;u&gt;categories_id&lt;br&gt;&lt;/u&gt;" style="ellipse;whiteSpace=wrap;html=1;fillColor=#fff2cc;gradientColor=#ffd966;strokeColor=#d6b656;" vertex="1" parent="1">
          <mxGeometry x="850" y="550" width="80" height="50" as="geometry" />
        </mxCell>
        <mxCell id="N1igYpdXhc1rZIDnyuqD-81" value="" style="endArrow=none;html=1;rounded=0;entryX=0;entryY=0.5;entryDx=0;entryDy=0;exitX=1;exitY=0.5;exitDx=0;exitDy=0;" edge="1" parent="1" source="N1igYpdXhc1rZIDnyuqD-76" target="N1igYpdXhc1rZIDnyuqD-10">
          <mxGeometry width="50" height="50" relative="1" as="geometry">
            <mxPoint x="780" y="540" as="sourcePoint" />
            <mxPoint x="830" y="490" as="targetPoint" />
          </mxGeometry>
        </mxCell>
        <mxCell id="N1igYpdXhc1rZIDnyuqD-82" value="" style="endArrow=none;html=1;rounded=0;entryX=0;entryY=0.5;entryDx=0;entryDy=0;exitX=1;exitY=0.5;exitDx=0;exitDy=0;" edge="1" parent="1" source="N1igYpdXhc1rZIDnyuqD-10" target="N1igYpdXhc1rZIDnyuqD-78">
          <mxGeometry width="50" height="50" relative="1" as="geometry">
            <mxPoint x="780" y="540" as="sourcePoint" />
            <mxPoint x="830" y="490" as="targetPoint" />
          </mxGeometry>
        </mxCell>
        <mxCell id="N1igYpdXhc1rZIDnyuqD-83" value="" style="endArrow=none;html=1;rounded=0;entryX=0.5;entryY=1;entryDx=0;entryDy=0;exitX=0.5;exitY=0;exitDx=0;exitDy=0;" edge="1" parent="1" source="N1igYpdXhc1rZIDnyuqD-80" target="N1igYpdXhc1rZIDnyuqD-10">
          <mxGeometry width="50" height="50" relative="1" as="geometry">
            <mxPoint x="780" y="540" as="sourcePoint" />
            <mxPoint x="830" y="490" as="targetPoint" />
          </mxGeometry>
        </mxCell>
        <mxCell id="N1igYpdXhc1rZIDnyuqD-84" value="" style="endArrow=none;html=1;rounded=0;entryX=0.5;entryY=1;entryDx=0;entryDy=0;exitX=0;exitY=0;exitDx=0;exitDy=0;" edge="1" parent="1" source="N1igYpdXhc1rZIDnyuqD-79" target="N1igYpdXhc1rZIDnyuqD-10">
          <mxGeometry width="50" height="50" relative="1" as="geometry">
            <mxPoint x="780" y="540" as="sourcePoint" />
            <mxPoint x="830" y="490" as="targetPoint" />
          </mxGeometry>
        </mxCell>
        <mxCell id="N1igYpdXhc1rZIDnyuqD-85" value="*" style="text;html=1;strokeColor=none;fillColor=none;align=center;verticalAlign=middle;whiteSpace=wrap;rounded=0;fontStyle=0;fontSize=18;" vertex="1" parent="1">
          <mxGeometry x="970" y="222.78" width="60" height="30" as="geometry" />
        </mxCell>
        <mxCell id="N1igYpdXhc1rZIDnyuqD-86" value="*" style="text;html=1;strokeColor=none;fillColor=none;align=center;verticalAlign=middle;whiteSpace=wrap;rounded=0;fontStyle=0;fontSize=18;" vertex="1" parent="1">
          <mxGeometry x="710" y="396" width="60" height="30" as="geometry" />
        </mxCell>
        <mxCell id="N1igYpdXhc1rZIDnyuqD-87" value="1" style="text;html=1;strokeColor=none;fillColor=none;align=center;verticalAlign=middle;whiteSpace=wrap;rounded=0;" vertex="1" parent="1">
          <mxGeometry x="800" y="340" width="60" height="30" as="geometry" />
        </mxCell>
        <mxCell id="N1igYpdXhc1rZIDnyuqD-88" value="1" style="text;html=1;strokeColor=none;fillColor=none;align=center;verticalAlign=middle;whiteSpace=wrap;rounded=0;" vertex="1" parent="1">
          <mxGeometry x="590" y="520" width="60" height="30" as="geometry" />
        </mxCell>
        <mxCell id="N1igYpdXhc1rZIDnyuqD-89" value="&lt;u&gt;id&lt;/u&gt;" style="ellipse;whiteSpace=wrap;html=1;fillColor=#fff2cc;gradientColor=#ffd966;strokeColor=#d6b656;" vertex="1" parent="1">
          <mxGeometry x="780" y="615" width="80" height="50" as="geometry" />
        </mxCell>
        <mxCell id="N1igYpdXhc1rZIDnyuqD-90" value="&lt;span&gt;name&lt;/span&gt;" style="ellipse;whiteSpace=wrap;html=1;fillColor=#fff2cc;gradientColor=#ffd966;strokeColor=#d6b656;fontStyle=0" vertex="1" parent="1">
          <mxGeometry x="690" y="700" width="80" height="50" as="geometry" />
        </mxCell>
        <mxCell id="N1igYpdXhc1rZIDnyuqD-91" value="" style="endArrow=none;html=1;rounded=0;entryX=0;entryY=0.5;entryDx=0;entryDy=0;exitX=1;exitY=0.5;exitDx=0;exitDy=0;" edge="1" parent="1" source="N1igYpdXhc1rZIDnyuqD-9" target="N1igYpdXhc1rZIDnyuqD-89">
          <mxGeometry width="50" height="50" relative="1" as="geometry">
            <mxPoint x="720" y="630" as="sourcePoint" />
            <mxPoint x="430" y="550" as="targetPoint" />
          </mxGeometry>
        </mxCell>
        <mxCell id="N1igYpdXhc1rZIDnyuqD-92" value="" style="endArrow=none;html=1;rounded=0;entryX=0.5;entryY=1;entryDx=0;entryDy=0;exitX=0.5;exitY=0;exitDx=0;exitDy=0;" edge="1" parent="1" source="N1igYpdXhc1rZIDnyuqD-90" target="N1igYpdXhc1rZIDnyuqD-9">
          <mxGeometry width="50" height="50" relative="1" as="geometry">
            <mxPoint x="590" y="750" as="sourcePoint" />
            <mxPoint x="640" y="700" as="targetPoint" />
          </mxGeometry>
        </mxCell>
        <mxCell id="N1igYpdXhc1rZIDnyuqD-93" value="&lt;u&gt;id&lt;/u&gt;" style="ellipse;whiteSpace=wrap;html=1;fillColor=#fff2cc;gradientColor=#ffd966;strokeColor=#d6b656;" vertex="1" parent="1">
          <mxGeometry x="-360" y="730" width="80" height="50" as="geometry" />
        </mxCell>
        <mxCell id="N1igYpdXhc1rZIDnyuqD-94" value="lat" style="ellipse;whiteSpace=wrap;html=1;fillColor=#fff2cc;gradientColor=#ffd966;strokeColor=#d6b656;" vertex="1" parent="1">
          <mxGeometry x="-250" y="720" width="80" height="50" as="geometry" />
        </mxCell>
        <mxCell id="N1igYpdXhc1rZIDnyuqD-95" value="name" style="ellipse;whiteSpace=wrap;html=1;fillColor=#fff2cc;gradientColor=#ffd966;strokeColor=#d6b656;" vertex="1" parent="1">
          <mxGeometry x="-400" y="845" width="80" height="50" as="geometry" />
        </mxCell>
        <mxCell id="N1igYpdXhc1rZIDnyuqD-96" value="lon" style="ellipse;whiteSpace=wrap;html=1;fillColor=#fff2cc;gradientColor=#ffd966;strokeColor=#d6b656;" vertex="1" parent="1">
          <mxGeometry x="-130" y="720" width="80" height="50" as="geometry" />
        </mxCell>
        <mxCell id="N1igYpdXhc1rZIDnyuqD-97" value="" style="endArrow=none;html=1;rounded=0;entryX=1;entryY=0.5;entryDx=0;entryDy=0;exitX=0;exitY=0.5;exitDx=0;exitDy=0;" edge="1" parent="1" source="N1igYpdXhc1rZIDnyuqD-1" target="N1igYpdXhc1rZIDnyuqD-95">
          <mxGeometry width="50" height="50" relative="1" as="geometry">
            <mxPoint x="320" y="790" as="sourcePoint" />
            <mxPoint x="370" y="740" as="targetPoint" />
          </mxGeometry>
        </mxCell>
        <mxCell id="N1igYpdXhc1rZIDnyuqD-98" value="" style="endArrow=none;html=1;rounded=0;entryX=1;entryY=1;entryDx=0;entryDy=0;exitX=0;exitY=0;exitDx=0;exitDy=0;" edge="1" parent="1" source="N1igYpdXhc1rZIDnyuqD-1" target="N1igYpdXhc1rZIDnyuqD-93">
          <mxGeometry width="50" height="50" relative="1" as="geometry">
            <mxPoint x="140" y="790" as="sourcePoint" />
            <mxPoint x="190" y="740" as="targetPoint" />
          </mxGeometry>
        </mxCell>
        <mxCell id="N1igYpdXhc1rZIDnyuqD-99" value="" style="endArrow=none;html=1;rounded=0;entryX=0.5;entryY=1;entryDx=0;entryDy=0;exitX=0.5;exitY=0;exitDx=0;exitDy=0;" edge="1" parent="1" source="N1igYpdXhc1rZIDnyuqD-1" target="N1igYpdXhc1rZIDnyuqD-94">
          <mxGeometry width="50" height="50" relative="1" as="geometry">
            <mxPoint x="140" y="790" as="sourcePoint" />
            <mxPoint x="190" y="740" as="targetPoint" />
          </mxGeometry>
        </mxCell>
        <mxCell id="N1igYpdXhc1rZIDnyuqD-101" value="" style="endArrow=none;html=1;rounded=0;exitX=0.5;exitY=0;exitDx=0;exitDy=0;entryX=0.5;entryY=1;entryDx=0;entryDy=0;" edge="1" parent="1" source="N1igYpdXhc1rZIDnyuqD-1" target="N1igYpdXhc1rZIDnyuqD-96">
          <mxGeometry width="50" height="50" relative="1" as="geometry">
            <mxPoint x="140" y="790" as="sourcePoint" />
            <mxPoint x="190" y="740" as="targetPoint" />
          </mxGeometry>
        </mxCell>
        <mxCell id="N1igYpdXhc1rZIDnyuqD-102" value="&lt;u&gt;product_id&lt;/u&gt;" style="ellipse;whiteSpace=wrap;html=1;fillColor=#fff2cc;gradientColor=#ffd966;strokeColor=#d6b656;" vertex="1" parent="1">
          <mxGeometry x="520" y="947" width="80" height="50" as="geometry" />
        </mxCell>
        <mxCell id="N1igYpdXhc1rZIDnyuqD-103" value="&lt;u&gt;id&lt;/u&gt;" style="ellipse;whiteSpace=wrap;html=1;fillColor=#fff2cc;gradientColor=#ffd966;strokeColor=#d6b656;" vertex="1" parent="1">
          <mxGeometry x="170" y="777" width="80" height="50" as="geometry" />
        </mxCell>
        <mxCell id="N1igYpdXhc1rZIDnyuqD-104" value="&lt;u&gt;store_id&lt;/u&gt;" style="ellipse;whiteSpace=wrap;html=1;fillColor=#fff2cc;gradientColor=#ffd966;strokeColor=#d6b656;" vertex="1" parent="1">
          <mxGeometry x="210" y="707" width="80" height="50" as="geometry" />
        </mxCell>
        <mxCell id="N1igYpdXhc1rZIDnyuqD-105" style="edgeStyle=orthogonalEdgeStyle;rounded=0;orthogonalLoop=1;jettySize=auto;html=1;exitX=0.5;exitY=1;exitDx=0;exitDy=0;" edge="1" parent="1" source="N1igYpdXhc1rZIDnyuqD-66" target="N1igYpdXhc1rZIDnyuqD-66">
          <mxGeometry relative="1" as="geometry" />
        </mxCell>
        <mxCell id="N1igYpdXhc1rZIDnyuqD-106" value="ΕΧΕΙ" style="rhombus;whiteSpace=wrap;html=1;fillColor=#f5f5f5;gradientColor=#b3b3b3;strokeColor=#666666;fontSize=14;" vertex="1" parent="1">
          <mxGeometry x="-10" y="830" width="120" height="80" as="geometry" />
        </mxCell>
        <mxCell id="N1igYpdXhc1rZIDnyuqD-107" value="ΣΥΜΜΕΤΕΧΕΙ ΣΕ" style="rhombus;whiteSpace=wrap;html=1;fillColor=#f5f5f5;gradientColor=#b3b3b3;strokeColor=#666666;fontSize=14;" vertex="1" parent="1">
          <mxGeometry x="1045" y="840" width="130" height="80" as="geometry" />
        </mxCell>
        <mxCell id="N1igYpdXhc1rZIDnyuqD-108" value="price" style="ellipse;whiteSpace=wrap;html=1;fillColor=#fff2cc;gradientColor=#ffd966;strokeColor=#d6b656;fontStyle=0" vertex="1" parent="1">
          <mxGeometry x="300" y="737" width="80" height="50" as="geometry" />
        </mxCell>
        <mxCell id="N1igYpdXhc1rZIDnyuqD-109" value="&lt;span&gt;stock&lt;/span&gt;" style="ellipse;whiteSpace=wrap;html=1;fillColor=#fff2cc;gradientColor=#ffd966;strokeColor=#d6b656;fontStyle=0" vertex="1" parent="1">
          <mxGeometry x="500" y="757" width="80" height="50" as="geometry" />
        </mxCell>
        <mxCell id="N1igYpdXhc1rZIDnyuqD-110" value="&lt;span&gt;active&lt;/span&gt;" style="ellipse;whiteSpace=wrap;html=1;fillColor=#fff2cc;gradientColor=#ffd966;strokeColor=#d6b656;fontStyle=0" vertex="1" parent="1">
          <mxGeometry x="580" y="792" width="80" height="50" as="geometry" />
        </mxCell>
        <mxCell id="N1igYpdXhc1rZIDnyuqD-111" value="&lt;span&gt;criteria_ok&lt;/span&gt;" style="ellipse;whiteSpace=wrap;html=1;fillColor=#fff2cc;gradientColor=#ffd966;strokeColor=#d6b656;fontStyle=0" vertex="1" parent="1">
          <mxGeometry x="210" y="917" width="80" height="50" as="geometry" />
        </mxCell>
        <mxCell id="N1igYpdXhc1rZIDnyuqD-112" value="&lt;span&gt;likes_num&lt;/span&gt;" style="ellipse;whiteSpace=wrap;html=1;fillColor=#fff2cc;gradientColor=#ffd966;strokeColor=#d6b656;fontStyle=0" vertex="1" parent="1">
          <mxGeometry x="260" y="977" width="80" height="50" as="geometry" />
        </mxCell>
        <mxCell id="N1igYpdXhc1rZIDnyuqD-113" value="&lt;span&gt;dislikes_num&lt;/span&gt;" style="ellipse;whiteSpace=wrap;html=1;fillColor=#fff2cc;gradientColor=#ffd966;strokeColor=#d6b656;fontStyle=0" vertex="1" parent="1">
          <mxGeometry x="350" y="967" width="80" height="50" as="geometry" />
        </mxCell>
        <mxCell id="N1igYpdXhc1rZIDnyuqD-114" value="&lt;span&gt;date_created&lt;/span&gt;" style="ellipse;whiteSpace=wrap;html=1;fillColor=#fff2cc;gradientColor=#ffd966;strokeColor=#d6b656;fontStyle=0" vertex="1" parent="1">
          <mxGeometry x="440" y="987" width="80" height="50" as="geometry" />
        </mxCell>
        <mxCell id="N1igYpdXhc1rZIDnyuqD-115" value="&lt;u&gt;user_suggested&lt;/u&gt;" style="ellipse;whiteSpace=wrap;html=1;fillColor=#fff2cc;gradientColor=#ffd966;strokeColor=#d6b656;" vertex="1" parent="1">
          <mxGeometry x="460" y="677" width="105" height="50" as="geometry" />
        </mxCell>
        <mxCell id="N1igYpdXhc1rZIDnyuqD-116" value="ΑΝΕΒΑΖΕΙ/ΒΛΕΠΕΙ" style="rhombus;whiteSpace=wrap;html=1;fillColor=#f5f5f5;gradientColor=#b3b3b3;strokeColor=#666666;fontSize=14;" vertex="1" parent="1">
          <mxGeometry x="340" y="300" width="120" height="80" as="geometry" />
        </mxCell>
        <mxCell id="N1igYpdXhc1rZIDnyuqD-117" value="" style="endArrow=none;html=1;rounded=0;exitX=1;exitY=1;exitDx=0;exitDy=0;entryX=0;entryY=0.25;entryDx=0;entryDy=0;" edge="1" parent="1" source="N1igYpdXhc1rZIDnyuqD-103" target="N1igYpdXhc1rZIDnyuqD-6">
          <mxGeometry width="50" height="50" relative="1" as="geometry">
            <mxPoint x="350" y="777" as="sourcePoint" />
            <mxPoint x="400" y="727" as="targetPoint" />
          </mxGeometry>
        </mxCell>
        <mxCell id="N1igYpdXhc1rZIDnyuqD-118" value="" style="endArrow=none;html=1;rounded=0;entryX=0.5;entryY=1;entryDx=0;entryDy=0;exitX=0;exitY=0;exitDx=0;exitDy=0;" edge="1" parent="1" source="N1igYpdXhc1rZIDnyuqD-6" target="N1igYpdXhc1rZIDnyuqD-104">
          <mxGeometry width="50" height="50" relative="1" as="geometry">
            <mxPoint x="400" y="927" as="sourcePoint" />
            <mxPoint x="450" y="877" as="targetPoint" />
          </mxGeometry>
        </mxCell>
        <mxCell id="N1igYpdXhc1rZIDnyuqD-119" value="" style="endArrow=none;html=1;rounded=0;entryX=0.5;entryY=1;entryDx=0;entryDy=0;exitX=0.25;exitY=0;exitDx=0;exitDy=0;" edge="1" parent="1" source="N1igYpdXhc1rZIDnyuqD-6" target="N1igYpdXhc1rZIDnyuqD-108">
          <mxGeometry width="50" height="50" relative="1" as="geometry">
            <mxPoint x="400" y="827" as="sourcePoint" />
            <mxPoint x="450" y="777" as="targetPoint" />
          </mxGeometry>
        </mxCell>
        <mxCell id="N1igYpdXhc1rZIDnyuqD-120" value="" style="endArrow=none;html=1;rounded=0;entryX=0.5;entryY=1;entryDx=0;entryDy=0;exitX=0.75;exitY=0;exitDx=0;exitDy=0;" edge="1" parent="1" source="N1igYpdXhc1rZIDnyuqD-6" target="N1igYpdXhc1rZIDnyuqD-115">
          <mxGeometry width="50" height="50" relative="1" as="geometry">
            <mxPoint x="400" y="877" as="sourcePoint" />
            <mxPoint x="450" y="827" as="targetPoint" />
          </mxGeometry>
        </mxCell>
        <mxCell id="N1igYpdXhc1rZIDnyuqD-121" value="" style="endArrow=none;html=1;rounded=0;entryX=0;entryY=1;entryDx=0;entryDy=0;exitX=1;exitY=0;exitDx=0;exitDy=0;" edge="1" parent="1" source="N1igYpdXhc1rZIDnyuqD-6" target="N1igYpdXhc1rZIDnyuqD-109">
          <mxGeometry width="50" height="50" relative="1" as="geometry">
            <mxPoint x="400" y="877" as="sourcePoint" />
            <mxPoint x="450" y="827" as="targetPoint" />
          </mxGeometry>
        </mxCell>
        <mxCell id="N1igYpdXhc1rZIDnyuqD-122" value="" style="endArrow=none;html=1;rounded=0;entryX=0;entryY=1;entryDx=0;entryDy=0;exitX=1;exitY=0.5;exitDx=0;exitDy=0;" edge="1" parent="1" source="N1igYpdXhc1rZIDnyuqD-6" target="N1igYpdXhc1rZIDnyuqD-110">
          <mxGeometry width="50" height="50" relative="1" as="geometry">
            <mxPoint x="400" y="927" as="sourcePoint" />
            <mxPoint x="450" y="877" as="targetPoint" />
          </mxGeometry>
        </mxCell>
        <mxCell id="N1igYpdXhc1rZIDnyuqD-123" value="" style="endArrow=none;html=1;rounded=0;entryX=1;entryY=1;entryDx=0;entryDy=0;exitX=0.5;exitY=0;exitDx=0;exitDy=0;" edge="1" parent="1" source="N1igYpdXhc1rZIDnyuqD-102" target="N1igYpdXhc1rZIDnyuqD-6">
          <mxGeometry width="50" height="50" relative="1" as="geometry">
            <mxPoint x="400" y="977" as="sourcePoint" />
            <mxPoint x="450" y="927" as="targetPoint" />
          </mxGeometry>
        </mxCell>
        <mxCell id="N1igYpdXhc1rZIDnyuqD-124" value="" style="endArrow=none;html=1;rounded=0;entryX=0.75;entryY=1;entryDx=0;entryDy=0;exitX=0.5;exitY=0;exitDx=0;exitDy=0;" edge="1" parent="1" source="N1igYpdXhc1rZIDnyuqD-114" target="N1igYpdXhc1rZIDnyuqD-6">
          <mxGeometry width="50" height="50" relative="1" as="geometry">
            <mxPoint x="400" y="977" as="sourcePoint" />
            <mxPoint x="450" y="927" as="targetPoint" />
          </mxGeometry>
        </mxCell>
        <mxCell id="N1igYpdXhc1rZIDnyuqD-125" value="" style="endArrow=none;html=1;rounded=0;entryX=0.5;entryY=1;entryDx=0;entryDy=0;exitX=0.5;exitY=0;exitDx=0;exitDy=0;" edge="1" parent="1" source="N1igYpdXhc1rZIDnyuqD-113" target="N1igYpdXhc1rZIDnyuqD-6">
          <mxGeometry width="50" height="50" relative="1" as="geometry">
            <mxPoint x="400" y="977" as="sourcePoint" />
            <mxPoint x="450" y="927" as="targetPoint" />
          </mxGeometry>
        </mxCell>
        <mxCell id="N1igYpdXhc1rZIDnyuqD-126" value="" style="endArrow=none;html=1;rounded=0;entryX=0.25;entryY=1;entryDx=0;entryDy=0;exitX=0.5;exitY=0;exitDx=0;exitDy=0;" edge="1" parent="1" source="N1igYpdXhc1rZIDnyuqD-112" target="N1igYpdXhc1rZIDnyuqD-6">
          <mxGeometry width="50" height="50" relative="1" as="geometry">
            <mxPoint x="400" y="977" as="sourcePoint" />
            <mxPoint x="450" y="927" as="targetPoint" />
          </mxGeometry>
        </mxCell>
        <mxCell id="N1igYpdXhc1rZIDnyuqD-127" value="" style="endArrow=none;html=1;rounded=0;entryX=0;entryY=1;entryDx=0;entryDy=0;exitX=1;exitY=0;exitDx=0;exitDy=0;" edge="1" parent="1" source="N1igYpdXhc1rZIDnyuqD-111" target="N1igYpdXhc1rZIDnyuqD-6">
          <mxGeometry width="50" height="50" relative="1" as="geometry">
            <mxPoint x="400" y="977" as="sourcePoint" />
            <mxPoint x="450" y="927" as="targetPoint" />
          </mxGeometry>
        </mxCell>
        <mxCell id="N1igYpdXhc1rZIDnyuqD-128" value="" style="endArrow=none;html=1;rounded=0;entryX=0;entryY=0.5;entryDx=0;entryDy=0;exitX=1;exitY=0.5;exitDx=0;exitDy=0;" edge="1" parent="1" source="N1igYpdXhc1rZIDnyuqD-106" target="N1igYpdXhc1rZIDnyuqD-6">
          <mxGeometry width="50" height="50" relative="1" as="geometry">
            <mxPoint x="160" y="867" as="sourcePoint" />
            <mxPoint x="160" y="827" as="targetPoint" />
          </mxGeometry>
        </mxCell>
        <mxCell id="N1igYpdXhc1rZIDnyuqD-129" value="" style="endArrow=none;html=1;rounded=0;entryX=1;entryY=0.5;entryDx=0;entryDy=0;exitX=0;exitY=0.5;exitDx=0;exitDy=0;" edge="1" parent="1" source="N1igYpdXhc1rZIDnyuqD-106" target="N1igYpdXhc1rZIDnyuqD-1">
          <mxGeometry width="50" height="50" relative="1" as="geometry">
            <mxPoint x="60" y="880" as="sourcePoint" />
            <mxPoint x="110" y="830" as="targetPoint" />
          </mxGeometry>
        </mxCell>
        <mxCell id="N1igYpdXhc1rZIDnyuqD-130" value="" style="endArrow=none;html=1;rounded=0;exitX=1.011;exitY=0.648;exitDx=0;exitDy=0;exitPerimeter=0;entryX=0;entryY=0.5;entryDx=0;entryDy=0;" edge="1" parent="1" source="N1igYpdXhc1rZIDnyuqD-6" target="N1igYpdXhc1rZIDnyuqD-107">
          <mxGeometry width="50" height="50" relative="1" as="geometry">
            <mxPoint x="670" y="880" as="sourcePoint" />
            <mxPoint x="720" y="830" as="targetPoint" />
          </mxGeometry>
        </mxCell>
        <mxCell id="N1igYpdXhc1rZIDnyuqD-131" value="" style="endArrow=none;html=1;rounded=0;exitX=0.5;exitY=0;exitDx=0;exitDy=0;entryX=0.5;entryY=1;entryDx=0;entryDy=0;" edge="1" parent="1" source="N1igYpdXhc1rZIDnyuqD-107" target="N1igYpdXhc1rZIDnyuqD-4">
          <mxGeometry width="50" height="50" relative="1" as="geometry">
            <mxPoint x="1170" y="680" as="sourcePoint" />
            <mxPoint x="1220" y="630" as="targetPoint" />
          </mxGeometry>
        </mxCell>
        <mxCell id="N1igYpdXhc1rZIDnyuqD-132" value="1" style="text;html=1;strokeColor=none;fillColor=none;align=center;verticalAlign=middle;whiteSpace=wrap;rounded=0;" vertex="1" parent="1">
          <mxGeometry x="1100" y="570" width="60" height="30" as="geometry" />
        </mxCell>
        <mxCell id="N1igYpdXhc1rZIDnyuqD-134" value="*" style="text;html=1;strokeColor=none;fillColor=none;align=center;verticalAlign=middle;whiteSpace=wrap;rounded=0;fontStyle=0;fontSize=18;" vertex="1" parent="1">
          <mxGeometry x="740" y="855" width="60" height="30" as="geometry" />
        </mxCell>
        <mxCell id="N1igYpdXhc1rZIDnyuqD-135" value="*" style="text;html=1;strokeColor=none;fillColor=none;align=center;verticalAlign=middle;whiteSpace=wrap;rounded=0;fontStyle=0;fontSize=18;" vertex="1" parent="1">
          <mxGeometry x="190" y="843" width="60" height="30" as="geometry" />
        </mxCell>
        <mxCell id="N1igYpdXhc1rZIDnyuqD-136" value="1" style="text;html=1;strokeColor=none;fillColor=none;align=center;verticalAlign=middle;whiteSpace=wrap;rounded=0;" vertex="1" parent="1">
          <mxGeometry x="-90" y="842" width="60" height="30" as="geometry" />
        </mxCell>
        <mxCell id="N1igYpdXhc1rZIDnyuqD-137" value="" style="endArrow=none;html=1;rounded=0;exitX=0;exitY=0;exitDx=0;exitDy=0;entryX=0.5;entryY=1;entryDx=0;entryDy=0;" edge="1" parent="1" source="N1igYpdXhc1rZIDnyuqD-116" target="N1igYpdXhc1rZIDnyuqD-2">
          <mxGeometry width="50" height="50" relative="1" as="geometry">
            <mxPoint x="610" y="310" as="sourcePoint" />
            <mxPoint x="140" y="190" as="targetPoint" />
          </mxGeometry>
        </mxCell>
        <mxCell id="N1igYpdXhc1rZIDnyuqD-139" value="*" style="text;html=1;strokeColor=none;fillColor=none;align=center;verticalAlign=middle;whiteSpace=wrap;rounded=0;fontStyle=0;fontSize=18;" vertex="1" parent="1">
          <mxGeometry x="260" y="267.78" width="60" height="30" as="geometry" />
        </mxCell>
        <mxCell id="N1igYpdXhc1rZIDnyuqD-140" value="" style="endArrow=none;html=1;rounded=0;entryX=0.5;entryY=1;entryDx=0;entryDy=0;exitX=0.5;exitY=0;exitDx=0;exitDy=0;" edge="1" parent="1" source="N1igYpdXhc1rZIDnyuqD-6" target="N1igYpdXhc1rZIDnyuqD-116">
          <mxGeometry width="50" height="50" relative="1" as="geometry">
            <mxPoint x="350" y="520" as="sourcePoint" />
            <mxPoint x="400" y="470" as="targetPoint" />
          </mxGeometry>
        </mxCell>
        <mxCell id="N1igYpdXhc1rZIDnyuqD-141" value="*" style="text;html=1;strokeColor=none;fillColor=none;align=center;verticalAlign=middle;whiteSpace=wrap;rounded=0;fontStyle=0;fontSize=18;" vertex="1" parent="1">
          <mxGeometry x="380" y="570" width="60" height="30" as="geometry" />
        </mxCell>
      </root>
    </mxGraphModel>
  </diagram>
</mxfile>
